<svg width="180" height="180" viewBox="0 0 180 180" fill="none" xmlns="http://www.w3.org/2000/svg">
<path d="M17.31 146.35C16.2833 146.35 14.78 146.24 12.8 146.02C10.7467 145.8 8.84 145.397 7.08 144.81L9.28 131.5C10.38 131.867 11.4067 132.123 12.36 132.27C13.24 132.417 14.3767 132.49 15.77 132.49C18.3367 132.49 20.1333 131.72 21.16 130.18C22.1867 128.64 22.7 126.403 22.7 123.47V68.14H39.09V123.91C39.09 131.537 37.22 137.183 33.48 140.85C29.74 144.517 24.35 146.35 17.31 146.35Z" fill="#111111"/>
<path d="M103.887 124.02C101.1 124.827 97.5069 125.56 93.1069 126.22C88.7069 126.953 84.0869 127.32 79.2469 127.32C74.3335 127.32 70.2269 126.66 66.9269 125.34C63.7002 124.02 61.1335 122.187 59.2269 119.84C57.3202 117.42 55.9635 114.56 55.1569 111.26C54.3502 107.96 53.9469 104.33 53.9469 100.37V68.14H70.3369V98.39C70.3369 103.67 71.0335 107.483 72.4269 109.83C73.8202 112.177 76.4235 113.35 80.2369 113.35C81.4102 113.35 82.6569 113.313 83.9769 113.24C85.2969 113.093 86.4702 112.947 87.4969 112.8V68.14H103.887V124.02Z" fill="#111111"/>
<path d="M119.272 70.12C122.059 69.3133 125.652 68.58 130.052 67.92C134.452 67.1867 139.072 66.82 143.912 66.82C148.826 66.82 152.896 67.48 156.122 68.8C159.422 70.0467 162.026 71.8433 163.932 74.19C165.839 76.5367 167.196 79.3233 168.002 82.55C168.809 85.7767 169.212 89.37 169.212 93.33V126H152.822V95.31C152.822 90.03 152.126 86.29 150.732 84.09C149.339 81.89 146.736 80.79 142.922 80.79C141.749 80.79 140.502 80.8633 139.182 81.01C137.862 81.0833 136.689 81.1933 135.662 81.34V126H119.272V70.12Z" fill="#111111"/>
<path d="M37.66 58.57C39.64 56.81 40.63 54.4267 40.63 51.42C40.63 48.4133 39.64 46.0667 37.66 44.38C35.7533 42.62 33.48 41.74 30.84 41.74C28.2 41.74 25.89 42.62 23.91 44.38C22.0033 46.0667 21.05 48.4133 21.05 51.42C21.05 54.4267 22.0033 56.81 23.91 58.57C25.89 60.2567 28.2 61.1 30.84 61.1C33.48 61.1 35.7533 60.2567 37.66 58.57Z" fill="#1ABCFE"/>
</svg>
